<svg id="Layer_1" data-name="Layer 1" xmlns="http://www.w3.org/2000/svg" width="300px" height="300px" viewBox="0 0 872 1034.82"><defs><style>.cls-1{fill:#293232;}.cls-2{fill:#fff;}</style></defs><title>Arrest-Icon-2</title><path class="cls-1" d="M976,528.59c0,240.8-436,598.82-436,598.82s-436-358-436-598.82,195.2-436,436-436S976,287.79,976,528.59Z" transform="translate(-104 -92.59)"/><path class="cls-2" d="M508.26,576.86,493.88,475.92a16.49,16.49,0,0,0-18.66-14L303.69,486.33a16.5,16.5,0,0,0-14,18.66l14.38,101a142,142,0,1,0,204.2-29.12ZM392.88,498.2a19.32,19.32,0,0,1,15.05,34l1.74,12.28a10.08,10.08,0,0,1-8.57,11.41,10,10,0,0,1-1.43.11,10.11,10.11,0,0,1-10-8.68l-1.74-12.27a19.32,19.32,0,0,1,4.94-36.87ZM501.16,749a101,101,0,0,1-66.93,39.59,104,104,0,0,1-14.5,1,101.62,101.62,0,0,1,.36-203.23h0A101.61,101.61,0,0,1,501.16,749Z" transform="translate(-104 -92.59)"/><path class="cls-2" d="M789.72,301.49a141.43,141.43,0,0,0-64.79-15.73h0a142.36,142.36,0,0,0-39.75,5.69l-90.7-46.62A16.48,16.48,0,0,0,572.27,252l-79.2,154.1a16.48,16.48,0,0,0,7.13,22.21l90.73,46.64A142,142,0,1,0,789.72,301.49ZM606.15,366.78a10.08,10.08,0,0,1-13.59,4.36l-11-5.67a19.33,19.33,0,1,1,9.23-18l11,5.67A10.1,10.1,0,0,1,606.15,366.78Zm209,107.43a101.6,101.6,0,1,1-90.24-148.07h0a101.62,101.62,0,0,1,90.24,148.07Z" transform="translate(-104 -92.59)"/><path class="cls-2" d="M376.76,458.89c.6,0,1.19,0,1.78,0a39.23,39.23,0,0,0,39.15-37.47l3.46-77.66a39.21,39.21,0,0,0-31.49-40.21,18.9,18.9,0,0,1,8.22-3l77.18-9.27a18.06,18.06,0,0,1,2.32-.14h0a19,19,0,0,1,2.22,37.92l-38.82,4.66a58.69,58.69,0,0,1,.54,11l-.41,9.35,41.1-4.93A39.22,39.22,0,0,0,477.38,271h0a39.86,39.86,0,0,0-4.73.28l-77.18,9.27a39.22,39.22,0,0,0,4.63,78.16h.18l-2.76,61.89a19,19,0,0,1-19,18.17c-.29,0-.59,0-.88,0a19,19,0,0,1-18.15-19.85l2.4-54a59.35,59.35,0,0,1-18.72-28.64,38.56,38.56,0,0,0-.39,4.05L339.33,418A39.22,39.22,0,0,0,376.76,458.89ZM400.1,338.48a19,19,0,0,1-18.62-15.43c.16,0,.31,0,.47,0l.88,0a19,19,0,0,1,17.81,15.41Z" transform="translate(-104 -92.59)"/></svg>
