<svg id="Layer_1" data-name="Layer 1" xmlns="http://www.w3.org/2000/svg" width="300px" height="300px" viewBox="0 0 872 1034.82"><defs><style>.cls-1{fill:#063bfc;}.cls-2{fill:#fff;}</style></defs><title>Assult-Icon-2</title><path class="cls-1" d="M976,528.59c0,240.8-436,598.82-436,598.82s-436-358-436-598.82,195.2-436,436-436S976,287.79,976,528.59Z" transform="translate(-104 -92.59)"/><path class="cls-2" d="M610.22,577.91a60.25,60.25,0,0,0-22.31-37.5c-3.17-17.48-17.32-38.27-41.93-48.07-9-10.84-21.73-22.74-43-27.31-10-10.88-28.9-24.22-46.37-24.22A28.54,28.54,0,0,0,438,447.37c-7.52,6.2-31,32.29-33.15,34.59-13,3.5-40.49,5.61-51.77,21.14s-28.43,51.42-30.6,64.86,6.38,50.23,6.38,50.23c-1.7,2.5-37.36,47.63-57.49,64.28,21.35,47.46,65.75,90.26,140.81,95.18,17.52-19.66,48.4-63.79,51.44-65.27,5.27-.75,29.83-3.2,38.5-4.67,11-1.84,33-12.67,96.3-85.12C608.29,611.28,612.81,594.17,610.22,577.91Zm-52.43-32,1.76,9.66c-14.26,20.06-39,46.38-50.79,52.49-18.63-2.44-21-12.37-23.05-22.13,15.62-7.4,23.83-20.84,28.59-33.76,2.12-2.62,12.68-18.78,20.9-31.1C550.61,527.43,556.73,540,557.79,545.88ZM496.57,495c12.56,2.7,19.88,9.76,25.91,17l2.48,3c-3.63,5.88-7.52,12.12-9.59,14.86-3.36-1.85-16.31-7.53-37.15-16.55,2.4-3.06,7.65-11.45,12.68-19.5ZM457,471.43c5.15.25,16.11,6.31,23.55,14.37l.11.12c-5.62,8.8-11.83,18.59-14.55,22.06-10.94-4.72-21.9-10-30.62-14.12C449.77,478.3,455.08,473.11,457,471.43Zm40,206.09c-4.65.79-16.9,2.16-25,3.07-5.77.64-10.62,1.19-12.69,1.49l-4.73.67-4.3,2.09c-8.05,3.9-10.81,7.58-28.79,31.48-7,9.29-15.11,20.1-22.31,29.15-46.47-7.14-73.84-31.91-89.88-57,21.14-22.26,43.62-51.15,44.92-53.07l7.51-11.08-3-13c-3.48-14.92-6.26-33.1-5.94-38.61,1.78-8.34,15.67-38.57,24.82-51.2,3.41-3.26,17.68-6.13,23.78-7.36,4-.81,7.85-1.58,11.46-2.55l8.43-2.27.79-.85c20.55,8.59,80.73,33.66,80.73,33.66-2.21,14.71-7.55,20.23-18.53,27.35-11.15,7.23-30.86,9.38-61.72-6.89L415.63,546l-8.72-2s-2,22.79-2,22.79c36.41,26.2,40.59,53.23,44.6,69.42C460,615,462.05,602.41,469.61,598.9c1.92,6,5.05,12.67,11.36,18.2,6.13,5.37,15.13,9.57,28.54,10.77v0a63.63,63.63,0,0,0,15.17,19.33c1.67,1.46,3.45,2.71,5.21,4C506.36,674.05,498,677.21,497,677.52Zm78.36-75.06c-12.32,14.1-22.73,25.44-31.67,34.75-6.4-4-13.28-10.3-17-17.67,13.82-10,31.9-34.32,44.52-53A28.9,28.9,0,0,1,580,582.74C581.13,589.91,579.22,598,575.34,602.46Z" transform="translate(-104 -92.59)"/><polygon class="cls-2" points="491.63 614.86 494.24 577.77 554.49 572.55 542.41 522.25 606.6 458.49 509.44 409.3 527.63 278.3 404.41 320.86 348.91 234.96 305.67 347.33 258.44 327.48 251.84 375.24 224.71 374.21 186.18 246.87 273.63 289.71 347.2 98.37 424.52 254.42 608.94 181.02 574 378.98 711 445.34 602.19 540.24 639.93 635.37 491.63 614.86"/></svg>
