<svg id="Layer_1" data-name="Layer 1" xmlns="http://www.w3.org/2000/svg" width="300px" height="300px" viewBox="0 0 872 1034.82"><defs><style>.cls-1{fill:#ff7503;}.cls-2{fill:#fff;}</style></defs><title>Burglary-Icon-2</title><path class="cls-1" d="M976,528.59c0,240.8-436,598.82-436,598.82s-436-358-436-598.82,195.2-436,436-436S976,287.79,976,528.59Z" transform="translate(-104 -92.59)"/><path class="cls-2" d="M709.41,242.6c-61.54-22.64-82.63,22.71-167.74,22.71S435.45,220,373.94,242.6c-42.32,15.49-47.26,89.12-44.11,147.46,52.89,20.5,125.68,34.2,211.84,34.2s159-13.7,211.85-34.2C756.66,331.72,751.72,258.09,709.41,242.6Z" transform="translate(-104 -92.59)"/><path class="cls-2" d="M785.73,408.33c-60.7,28.4-146.9,45.9-244.06,45.9s-183.35-17.5-244-45.9c-47.51,14.34-76.26,32.91-76.26,53.23,0,20.72,29.92,39.64,79.19,54.11C303,538.25,311.47,596.91,336,656.32c43,104.32,114.17,159.46,205.7,159.46s162.66-55.14,205.7-159.46c24.5-59.41,32.93-118.07,35.43-140.65C832.06,501.2,862,482.28,862,461.56,862,441.24,833.24,422.67,785.73,408.33ZM541.67,756.7c-129.63,0-168.86-160.84-179.51-227,13.43,2.33,27.59,4.41,42.37,6.21-.09,1.09-.33,2.14-.33,3.25,0,22.73,18.42,61.92,41.15,61.92,21.57,0,39-37.4,40.81-58.52q27.06,1.22,55.51,1.26t55.51-1.26c1.76,21.12,19.25,58.52,40.82,58.52,22.73,0,41.15-39.19,41.15-61.92,0-1.11-.25-2.16-.33-3.25,14.77-1.8,28.94-3.88,42.36-6.21C710.53,595.86,671.3,756.7,541.67,756.7Z" transform="translate(-104 -92.59)"/></svg>
