<svg id="Layer_1" data-name="Layer 1" xmlns="http://www.w3.org/2000/svg" width="300px" height="300px" viewBox="0 0 872 1034.82"><defs><style>.cls-1{fill:#fc0606;}.cls-2{fill:#fff;}</style></defs><title>Fire-Arson-Icon-2</title><path class="cls-1" d="M976,528.59c0,240.8-436,598.82-436,598.82s-436-358-436-598.82,195.2-436,436-436S976,287.79,976,528.59Z" transform="translate(-104 -92.59)"/><path class="cls-2" d="M819.22,335.87c-3.83-6.22-7.66,4.59-27,26.74C725.06,275.22,626.37,241,626.37,241c7.28,28.92,27.8,83.31-43.65,174.48C489,535.13,551.38,623.2,616.48,667.91a109.9,109.9,0,0,0,32.22,14.27,20.81,20.81,0,0,1-11,3.12s-29.73,3.47-61.85-17.39c-65.1-44.71-127.51-132.78-33.75-252.42,20.58-26.27,33.5-49.47,41.33-69.9l-52.66-46.21a28.6,28.6,0,0,0-37.71,0L238.57,522.66a28.59,28.59,0,0,0,37.71,43L312,534.29a39.73,39.73,0,0,0-1.47,10V712.1a21,21,0,0,0,20.9,20.9H692.36a21,21,0,0,0,20.9-20.9V680.57c5.55,4.31,11,6.76,16.45,5.75,40.14-3.51,97.95-36.2,120.07-101.62C889.57,467.06,819.22,335.87,819.22,335.87ZM724.46,671.63a128.07,128.07,0,0,1-20,13s-157.35-57.21-15.38-260.42c0,0-7.91,67.76,18.61,85.13,10.89,7.14,43.52-19.71,43.52-19.71S807.51,609,724.46,671.63Z" transform="translate(-104 -92.59)"/></svg>
