<svg id="Layer_1" data-name="Layer 1" xmlns="http://www.w3.org/2000/svg" width="300px" height="300px" viewBox="0 0 872 1034.82"><defs><style>.cls-1{fill:#551a8b;}.cls-2{fill:#fff;}</style></defs><title>Other-Icon-2</title><path class="cls-1" d="M976,528.59c0,240.8-436,598.82-436,598.82s-436-358-436-598.82,195.2-436,436-436S976,287.79,976,528.59Z" transform="translate(-104 -92.59)"/><path class="cls-2" d="M477.49,591.83q0-24.84,6.61-42.23t22.36-32.29q23.19-22.36,42.65-38.93t33.53-31.05q14.1-14.47,22-27.33a50.73,50.73,0,0,0,7.88-26.91q0-27.33-17-42.64t-42.64-15.32q-39,0-59.22,21.53t-22.76,52.17l-127.53-8.28q9.12-87.76,64.6-133.74t142.41-45.95A241.69,241.69,0,0,1,622,231.21a176.06,176.06,0,0,1,59.2,31,148.62,148.62,0,0,1,40.57,51.34q14.91,30.64,14.92,70.38a175.93,175.93,0,0,1-5,43.48,134.72,134.72,0,0,1-17,38.5q-12,19.07-31.46,38.51T634,547.11q-19.05,14.91-25.69,29a65.64,65.64,0,0,0-6.61,28.16v24H477.49Zm-14.08,159A77.79,77.79,0,0,1,469.19,721a73.24,73.24,0,0,1,40.58-40.58,79.63,79.63,0,0,1,59.62,0A73.24,73.24,0,0,1,610,721a79.48,79.48,0,0,1,0,59.61,73.16,73.16,0,0,1-40.58,40.58,79.51,79.51,0,0,1-59.62,0,73.16,73.16,0,0,1-40.58-40.58A77.67,77.67,0,0,1,463.41,750.82Z" transform="translate(-104 -92.59)"/></svg>
