<svg id="Layer_1" data-name="Layer 1" xmlns="http://www.w3.org/2000/svg" width="300px" height="300px" viewBox="0 0 872 1034.82"><defs><style>.cls-1{fill:#4d1e59;}.cls-2{fill:#fff;}</style></defs><title>Robbery-Icon-2</title><path class="cls-1" d="M976,528.59c0,240.8-436,598.82-436,598.82s-436-358-436-598.82,195.2-436,436-436S976,287.79,976,528.59Z" transform="translate(-104 -92.59)"/><path class="cls-2" d="M600.18,306.11a59.26,59.26,0,1,0-59.25-59.25A59.25,59.25,0,0,0,600.18,306.11Z" transform="translate(-104 -92.59)"/><path class="cls-2" d="M440.23,648.05,334.32,603.28c-16.43-7.62-34.35-4-42,12.41s1.75,32,18.19,39.65l125.26,63A32.81,32.81,0,0,0,475,709.24l63.23-77.76-62.72-39.36Z" transform="translate(-104 -92.59)"/><path class="cls-2" d="M795.1,437a21.68,21.68,0,0,0-27.35-13.83l-76.9,19.09-64-83.29c-4.6-11.44-13.22-20.48-24.48-24.16L584.66,329c-41.57-26.14-71.44-48.42-141.9-49.56-66.33-1.07-188,77-152.64,165.28s118.56,99.65,164.62,46.66c2.05-2.37,4.07-4.92,6.06-7.62l-7.05,21.6c-5.83,15.5-7,42,7.4,51.93L604.6,656.19l82.24,116.42c6.25,9.86,23.57,24.81,40,15.4S740,759.25,730.26,744l-73.8-128.52a32.85,32.85,0,0,0-9.11-9.46L564,545.24a56.24,56.24,0,0,0,4.16-9.56L601.8,428.15l57.81,62.32a27.07,27.07,0,0,0,29.91,9.23l91.75-35.34A21.66,21.66,0,0,0,795.1,437ZM450.37,367.88q-.15,9.18-6.69,17.72L429.84,374q5-6.85,2.55-13.91l-20.31,18.75Q420.21,394.47,419,404t-9.62,17.26q-9.4,8.67-21.1,8.93t-22.5-8.53l-9.71,9-6.95-7.53,9.45-8.73q-7.21-10-6.78-20.78t9.23-21.8L375,384a23.5,23.5,0,0,0-4.29,9.73,19.31,19.31,0,0,0,.34,9.12l21.76-20.09q-6.48-12.87-5-23.07t9.92-18A27.54,27.54,0,0,1,417,333.85q10.75,0,19.89,8.15l10.5-9.7,6.95,7.54-10.5,9.69Q450.52,358.71,450.37,367.88Z" transform="translate(-104 -92.59)"/><path class="cls-2" d="M417.55,350.83a12.38,12.38,0,0,0-7.18,3.27,11.79,11.79,0,0,0-3.58,6.38,15.62,15.62,0,0,0,.83,8.57l18-16.6A13.3,13.3,0,0,0,417.55,350.83Z" transform="translate(-104 -92.59)"/><path class="cls-2" d="M377.27,411a14.4,14.4,0,0,0,9.47,3,13.88,13.88,0,0,0,9-3.81,12.53,12.53,0,0,0,4.1-7.59q.63-4.39-2.34-10.31Z" transform="translate(-104 -92.59)"/><path class="cls-2" d="M631,350.54,660,389.93s15.65-17.1,2.27-33.45S631,350.54,631,350.54Z" transform="translate(-104 -92.59)"/></svg>
