<svg id="Layer_1" data-name="Layer 1" xmlns="http://www.w3.org/2000/svg" width="300px" height="300px" viewBox="0 0 872 1034.82"><defs><style>.cls-1{fill:#0ff908;}.cls-2{fill:#fff;}</style></defs><title>Theft-Icon-2</title><path class="cls-1" d="M976,528.59c0,240.8-436,598.82-436,598.82s-436-358-436-598.82,195.2-436,436-436S976,287.79,976,528.59Z" transform="translate(-104 -92.59)"/><path class="cls-2" d="M648.94,353.17a55,55,0,1,0-55-55A55,55,0,0,0,648.94,353.17Z" transform="translate(-104 -92.59)"/><path class="cls-2" d="M533.18,618.83l-32.8,51.95L402,629.19c-15.27-7.07-31.91-3.73-39,11.54s1.63,29.74,16.9,36.82L496.26,736a30.45,30.45,0,0,0,36.45-8.42l58.73-72.22Z" transform="translate(-104 -92.59)"/><path class="cls-2" d="M830,474.76a20.13,20.13,0,0,0-25.4-12.84l-71.43,17.73-59.44-77.37c-4.27-10.62-12.28-19-22.73-22.43L608.69,366a32.72,32.72,0,0,0-8.65-1.53,25.2,25.2,0,0,0-7.54-1.58c-5.18-.37-66.75-5.59-107.35-9.05A25.16,25.16,0,0,0,465,361.43l-67.27,76.16a20.46,20.46,0,1,0,29.38,28.48L492.77,405c27.88,2.38,47.75,4.06,62,5.26l-41.79,128c-5.42,14.39-6.5,39,6.88,48.23l133.24,91.82,76.39,108.14c5.8,9.16,21.88,23,37.18,14.3s12.14-26.71,3.14-40.93L701.21,640.48a30.38,30.38,0,0,0-8.45-8.79l-77.47-56.4a52,52,0,0,0,3.86-8.88l31.3-99.88,53.69,57.89A25.17,25.17,0,0,0,731.92,533l85.22-32.82A20.13,20.13,0,0,0,830,474.76Z" transform="translate(-104 -92.59)"/><path class="cls-2" d="M260.4,543.82c-18.22-18.22-18-40.71-15.63-54.39l-42.09,32.1a12.58,12.58,0,0,0,0,17.79l64.06,64a12.58,12.58,0,0,0,17.79,0L316,558.74C301.82,561.46,278.63,562.05,260.4,543.82Z" transform="translate(-104 -92.59)"/><path class="cls-2" d="M427.61,466.36c-2.67-7.44-8.15-12.17-14.65-12.65-6.84-.5-11,5.53-15.4,11.92-7.47,10.9-15.93,23.26-39.15,13.84-34.5-14-67.18,1.72-78.89,8.58L273,481.5a12.57,12.57,0,0,0-17.79,0l-4.44,3.38c-3.68,11-6.42,32,14.76,53.19,21.69,21.69,43.32,19,54.06,15.62l3.23-4.58a12.6,12.6,0,0,0,0-17.8l-6.27-6.26a19.5,19.5,0,0,1,7.19-9.78c5.33-3.5,12.93-3.62,22.58-.37,27.37,9.23,52.58,3.05,74.93-18.34C430,488.12,430.71,475,427.61,466.36Zm-148.27,66.5a4.7,4.7,0,1,1,0-6.65A4.68,4.68,0,0,1,279.34,532.86Zm135.15-43.32c-19.53,18.69-41.44,24.13-65.1,16.15-12.64-4.26-23.08-3.77-31,1.46a27.36,27.36,0,0,0-9.22,10.53l-22.45-22.46c11.94-6.44,39.8-18.22,68.07-6.74,30.45,12.36,43.21-6.24,50.82-17.35,1.87-2.73,5.3-7.92,6.66-7.72,3.69.27,5.58,4.45,6.22,6.24C420.6,475.59,419.92,484.34,414.49,489.54Z" transform="translate(-104 -92.59)"/></svg>
