<svg id="Layer_1" data-name="Layer 1" xmlns="http://www.w3.org/2000/svg" width="300px" height="300px" viewBox="0 0 872 1034.82"><defs><style>.cls-1{fill:#bf37b8;}.cls-2{fill:#fff;fill-rule:evenodd;}</style></defs><title>Vandalism-Icon-2</title><path class="cls-1" d="M976,528.59c0,240.8-436,598.82-436,598.82s-436-358-436-598.82,195.2-436,436-436S976,287.79,976,528.59Z" transform="translate(-104 -92.59)"/><path class="cls-2" d="M630.74,271.27c8.16-1.5,14.1-10.46,12.34-18.6-1.72-7.94-10.32-13.53-18.3-11.89s-13.72,10.13-12.14,18.13S622.86,272.71,630.74,271.27Z" transform="translate(-104 -92.59)"/><path class="cls-2" d="M515.8,262c-8.27,1.61-14.18,10.43-12.43,18.53,1.64,7.63,10.92,13.65,18.46,12,7.86-1.73,13.54-10.42,12-18.35A15.75,15.75,0,0,0,515.8,262Z" transform="translate(-104 -92.59)"/><path class="cls-2" d="M574.6,274c-7.65,1.52-13.75,10.6-12.27,18.28,1.57,8.13,10.51,13.95,18.69,12.17a15.91,15.91,0,0,0,11.83-18.31C591.24,278.32,582.43,272.46,574.6,274Z" transform="translate(-104 -92.59)"/><path class="cls-2" d="M556.55,182.89c-7.81,1.65-13.62,10.61-11.91,18.37a15.56,15.56,0,0,0,30.51-6.08A16,16,0,0,0,556.55,182.89Z" transform="translate(-104 -92.59)"/><path class="cls-2" d="M616.22,195.22c-8.47,1.59-14.22,10.08-12.42,18.33a15.61,15.61,0,0,0,18.31,11.65,15.28,15.28,0,1,0-5.89-30Z" transform="translate(-104 -92.59)"/><path class="cls-2" d="M462.45,280.21c8-1.42,13.81-9.87,12.27-17.92A15.37,15.37,0,0,0,457,249.85c-8.38,1.48-14.42,10.07-12.79,18.17C445.79,275.81,454.49,281.63,462.45,280.21Z" transform="translate(-104 -92.59)"/><path class="cls-2" d="M566.15,228.55c-8,1.36-14.09,9.8-12.78,17.66,1.36,8.15,10.24,14.3,18.37,12.73,8-1.54,13.77-10.09,12.3-18.06A15.68,15.68,0,0,0,566.15,228.55Z" transform="translate(-104 -92.59)"/><path class="cls-2" d="M612.93,179.8A15.68,15.68,0,0,0,625.45,162c-1.47-8.2-10.39-14.35-18.41-12.71-7.77,1.59-13.67,10.45-12.17,18.29C596.4,175.62,604.74,181.26,612.93,179.8Z" transform="translate(-104 -92.59)"/><path class="cls-2" d="M512.68,246.54a15.31,15.31,0,1,0-5.57-30.11c-8.48,1.63-14.3,10-12.68,18.24C496,242.48,504.74,248.19,512.68,246.54Z" transform="translate(-104 -92.59)"/><path class="cls-2" d="M633.5,286.33c-7.92,1.74-13.6,10.42-12,18.31a15.55,15.55,0,0,0,30.52-5.9C650.56,290.58,641.59,284.57,633.5,286.33Z" transform="translate(-104 -92.59)"/><path class="cls-2" d="M522.44,363c-3.88,1.39-6,.24-8.18-2.84-19.46-27.07-45.34-34.73-76.27-22.74l-25.84,10-3.78-9.72c2.69-1,5.06-1.93,7.4-2.88,12.37-5,15.62-12.17,10.91-24.52Q418,287.5,409,264.79c-4.76-12-11.5-15-23.36-10.51q-17.2,6.51-34.34,13.25c-10.83,4.27-14.3,11.74-10.21,22.52q9.18,24.17,18.76,48.17c3.93,9.85,11.56,13.27,21.65,9.94,3.25-1.08,6.41-2.46,9.79-3.78l3.77,9.71c-10.34,4-20,7.62-29.61,11.52-24.44,9.95-37.4,28.66-37.71,54.56-.14,11.74-1.36,19.09-12.77,26-16,9.68-19.53,30.43-11.88,50.14Q364.39,654.4,425.83,812.46c10.17,26.15,32.75,36,58.93,25.82q94.75-36.74,189.46-73.53c23.7-9.2,34.31-32.68,25.06-56.58Q637.81,549.35,576.1,390.63C566.81,366.66,543.93,355.32,522.44,363Zm-143.7,40.06q39.39-15.69,79.09-30.63c7.78-2.92,14.63-.18,20.61,6.72l-111,43.1C367.06,412.7,370.8,406.21,378.74,403.05ZM541.18,637l-44.26,17.18A61.5,61.5,0,0,1,452.4,539.56l44.26-17.18A61.5,61.5,0,1,1,541.18,637Z" transform="translate(-104 -92.59)"/></svg>
